<?xml version="1.0" encoding="UTF-8" standalone="no"?>
<!-- Created with Inkscape (http://www.inkscape.org/) -->

<svg
   xmlns:dc="http://purl.org/dc/elements/1.1/"
   xmlns:cc="http://creativecommons.org/ns#"
   xmlns:rdf="http://www.w3.org/1999/02/22-rdf-syntax-ns#"
   xmlns:svg="http://www.w3.org/2000/svg"
   xmlns="http://www.w3.org/2000/svg"
   xmlns:sodipodi="http://sodipodi.sourceforge.net/DTD/sodipodi-0.dtd"
   xmlns:inkscape="http://www.inkscape.org/namespaces/inkscape"
   width="51.440781mm"
   height="31.214214mm"
   viewBox="0 0 182.27048 110.60155"
   id="svg2"
   version="1.1"
   inkscape:version="0.91 r13725"
   sodipodi:docname="logo.svg">
  <defs
     id="defs4" />
  <sodipodi:namedview
     id="base"
     pagecolor="#ffffff"
     bordercolor="#666666"
     borderopacity="1.0"
     inkscape:pageopacity="0.0"
     inkscape:pageshadow="2"
     inkscape:zoom="1.4"
     inkscape:cx="56.152804"
     inkscape:cy="34.484975"
     inkscape:document-units="px"
     inkscape:current-layer="layer1"
     showgrid="false"
     showguides="true"
     inkscape:guide-bbox="true"
     fit-margin-top="0"
     fit-margin-left="0"
     fit-margin-right="0"
     fit-margin-bottom="0"
     inkscape:window-width="1366"
     inkscape:window-height="705"
     inkscape:window-x="-8"
     inkscape:window-y="-8"
     inkscape:window-maximized="1">
    <sodipodi:guide
       position="159.66741,83.711291"
       orientation="0,1"
       id="guide3406" />
    <sodipodi:guide
       position="158.40472,94.317891"
       orientation="0,1"
       id="guide3408" />
    <sodipodi:guide
       position="34.155948,71.715731"
       orientation="1,0"
       id="guide3426" />
    <sodipodi:guide
       position="34.155948,83.711291"
       orientation="0,1"
       id="guide3428" />
    <sodipodi:guide
       position="0.56837737,29.289321"
       orientation="1,0"
       id="guide3436" />
    <sodipodi:guide
       position="160.42502,0.24743104"
       orientation="0,1"
       id="guide3453" />
  </sodipodi:namedview>
  <metadata
     id="metadata7">
    <rdf:RDF>
      <cc:Work
         rdf:about="">
        <dc:format>image/svg+xml</dc:format>
        <dc:type
           rdf:resource="http://purl.org/dc/dcmitype/StillImage" />
        <dc:title></dc:title>
      </cc:Work>
    </rdf:RDF>
  </metadata>
  <g
     inkscape:label="Camada 1"
     inkscape:groupmode="layer"
     id="layer1"
     transform="translate(651.61169,-545.77576)">
    <g
       id="g3455"
       inkscape:export-xdpi="246.56075"
       inkscape:export-ydpi="246.56075">
      <rect
         transform="scale(-1,1)"
         y="546.27576"
         x="538.59998"
         height="109.60155"
         width="15.657365"
         id="rect3348"
         style="fill:#000000;fill-rule:evenodd;stroke:#000000;stroke-width:1px;stroke-linecap:butt;stroke-linejoin:miter;stroke-opacity:1" />
      <rect
         transform="scale(-1,1)"
         y="562.05499"
         x="556.27765"
         height="10.606602"
         width="66.670067"
         id="rect3361"
         style="fill:#000000" />
      <rect
         transform="scale(-1,1)"
         y="605.11761"
         x="469.8779"
         height="10.606602"
         width="66.670067"
         id="rect3361-2"
         style="fill:#000000" />
      <rect
         transform="scale(-1,1)"
         y="605.11719"
         x="556.27795"
         height="10.606602"
         width="66.670067"
         id="rect3361-2-3"
         style="fill:#000000" />
      <path
         inkscape:connector-curvature="0"
         id="path3402"
         d="m -624.84158,562.18555 0,10.67383 a 16.099306,16.099306 0 0 0 -13.13867,8.00976 16.099306,16.099306 0 0 0 0,16.09766 16.099306,16.099306 0 0 0 13.13867,8.02929 l 0,10.72852 a 26.769043,26.769043 0 0 1 -23.1836,-13.38477 26.769043,26.769043 0 0 1 0,-26.76953 26.769043,26.769043 0 0 1 23.1836,-13.38476 z"
         style="fill:#800000" />
      <rect
         transform="scale(-1,1)"
         y="562.05463"
         x="504.47562"
         height="10.606602"
         width="32.072342"
         id="rect3361-2-2"
         style="fill:#000000" />
      <path
         inkscape:transform-center-y="4.686566e-005"
         inkscape:transform-center-x="3.6855017"
         d="m -485.4723,576.42547 -16.1311,9.31329 0,-18.62658 1e-5,-18.62658 16.13109,9.31329 16.13108,9.31329 z"
         inkscape:randomized="0"
         inkscape:rounded="0"
         inkscape:flatsided="false"
         sodipodi:arg2="2.0943952"
         sodipodi:arg1="1.0471976"
         sodipodi:r2="21.50812"
         sodipodi:r1="10.754061"
         sodipodi:cy="567.11218"
         sodipodi:cx="-490.84933"
         sodipodi:sides="3"
         id="path3434"
         style="fill:#800000"
         sodipodi:type="star" />
      <path
         inkscape:connector-curvature="0"
         id="path3402-2"
         d="m -495.6172,605.15714 0,10.21103 a 15.401263,15.401263 0 0 1 12.569,7.66247 15.401263,15.401263 0 0 1 0,15.39968 15.401263,15.401263 0 0 1 -12.569,7.68116 l 0,10.26334 a 25.608375,25.608375 0 0 0 22.1784,-12.80442 25.608375,25.608375 0 0 0 0,-25.60884 25.608375,25.608375 0 0 0 -22.1784,-12.80442 z"
         style="fill:#000000" />
    </g>
  </g>
</svg>
